<svg width="50" height="50" viewBox="0 0 50 50" fill="none" xmlns="http://www.w3.org/2000/svg">
<mask id="mask0_1346_20274" style="mask-type:alpha" maskUnits="userSpaceOnUse" x="0" y="0" width="50" height="50">
<circle cx="25" cy="25" r="25" fill="#7EC904"/>
</mask>
<g mask="url(#mask0_1346_20274)">
<path d="M36.0073 15H16.8673C16.6121 14.9964 16.3602 14.9411 16.127 14.8375C15.8937 14.7339 15.6839 14.5842 15.51 14.3973C15.3362 14.2104 15.2021 13.9903 15.1157 13.7501C15.0293 13.51 14.9924 13.2548 15.0073 13C15.006 12.493 15.1974 12.0044 15.5427 11.6331C15.888 11.2618 16.3615 11.0355 16.8673 11H36.0073C36.2725 11 36.5268 10.8946 36.7144 10.7071C36.9019 10.5196 37.0073 10.2652 37.0073 10C37.0073 9.73478 36.9019 9.48043 36.7144 9.29289C36.5268 9.10536 36.2725 9 36.0073 9H16.8673C15.8308 9.0363 14.849 9.47369 14.1289 10.2199C13.4088 10.9662 13.0066 11.963 13.0073 13C12.9976 13.1632 12.9976 13.3268 13.0073 13.49C12.9976 13.5697 12.9976 13.6503 13.0073 13.73V37C13.0066 38.037 13.4088 39.0338 14.1289 39.7801C14.849 40.5263 15.8308 40.9637 16.8673 41H36.0073C36.2725 41 36.5268 40.8946 36.7144 40.7071C36.9019 40.5196 37.0073 40.2652 37.0073 40V16.07C37.0078 15.7979 36.9048 15.5359 36.719 15.3371C36.5332 15.1383 36.2787 15.0178 36.0073 15Z" fill="url(#paint0_linear_1346_20274)"/>
</g>
<defs>
<linearGradient id="paint0_linear_1346_20274" x1="13" y1="25" x2="37.0073" y2="25" gradientUnits="userSpaceOnUse">
<stop stop-color="#0249FF"/>
<stop offset="1" stop-color="#5555FB"/>
</linearGradient>
</defs>
</svg>
