<svg width="80" height="80" viewBox="0 0 109 109" fill="red" xmlns="http://www.w3.org/2000/svg">
<path d="M55.1667 16C76.7984 16 94.3333 33.5349 94.3333 55.1667C94.3333 76.7984 76.7984 94.3333 55.1667 94.3333H23.8333C21.7558 94.3333 19.7634 93.508 18.2943 92.039C16.8253 90.57 16 88.5775 16 86.5V55.1667C16 33.5349 33.5349 16 55.1667 16ZM55.1667 63H43.4167C42.3779 63 41.3817 63.4127 40.6472 64.1472C39.9126 64.8817 39.5 65.8779 39.5 66.9167C39.5 67.9554 39.9126 68.9517 40.6472 69.6862C41.3817 70.4207 42.3779 70.8333 43.4167 70.8333H55.1667C56.2054 70.8333 57.2017 70.4207 57.9362 69.6862C58.6707 68.9517 59.0833 67.9554 59.0833 66.9167C59.0833 65.8779 58.6707 64.8817 57.9362 64.1472C57.2017 63.4127 56.2054 63 55.1667 63ZM66.9167 47.3333H43.4167C42.4184 47.3344 41.4582 47.7167 40.7323 48.402C40.0064 49.0873 39.5696 50.0239 39.5111 51.0205C39.4526 52.017 39.7768 52.9983 40.4175 53.7638C41.0583 54.5294 41.9671 55.0213 42.9584 55.1393L43.4167 55.1667H66.9167C67.9149 55.1656 68.8751 54.7833 69.601 54.098C70.3269 53.4127 70.7638 52.4761 70.8223 51.4795C70.8808 50.483 70.5565 49.5017 69.9158 48.7362C69.2751 47.9706 68.3662 47.4787 67.3749 47.3608L66.9167 47.3333Z" fill="#5555FB"/>
</svg>
