<svg width="50" height="50" viewBox="0 0 50 50" fill="none" xmlns="http://www.w3.org/2000/svg">
<mask id="mask0_1346_20271" style="mask-type:alpha" maskUnits="userSpaceOnUse" x="0" y="0" width="50" height="50">
<circle cx="25" cy="25" r="25" fill="#D9D9D9"/>
</mask>
<g mask="url(#mask0_1346_20271)">
<path d="M25 24.5C27.5764 24.5 30.0473 23.4728 31.869 21.6443C33.6908 19.8158 34.7143 17.3359 34.7143 14.75C34.7143 12.1641 33.6908 9.68419 31.869 7.85571C30.0473 6.02723 27.5764 5 25 5C22.4236 5 19.9527 6.02723 18.131 7.85571C16.3092 9.68419 15.2857 12.1641 15.2857 14.75C15.2857 17.3359 16.3092 19.8158 18.131 21.6443C19.9527 23.4728 22.4236 24.5 25 24.5ZM17.7143 28.7047C12.0982 30.3576 8 35.5678 8 41.7377C8 42.9869 9.00938 44 10.254 44H39.746C40.9906 44 42 42.9869 42 41.7377C42 35.5678 37.9018 30.3576 32.2857 28.7047V32.5742C34.3804 33.115 35.9286 35.027 35.9286 37.2969V40.3438C35.9286 41.0141 35.3821 41.5625 34.7143 41.5625H33.5C32.8321 41.5625 32.2857 41.0141 32.2857 40.3438C32.2857 39.6734 32.8321 39.125 33.5 39.125V37.2969C33.5 35.9486 32.4147 34.8594 31.0714 34.8594C29.7281 34.8594 28.6429 35.9486 28.6429 37.2969V39.125C29.3107 39.125 29.8571 39.6734 29.8571 40.3438C29.8571 41.0141 29.3107 41.5625 28.6429 41.5625H27.4286C26.7607 41.5625 26.2143 41.0141 26.2143 40.3438V37.2969C26.2143 35.027 27.7625 33.115 29.8571 32.5742V28.2248C29.4018 28.1791 28.9388 28.1562 28.4683 28.1562H21.5317C21.0612 28.1562 20.5982 28.1791 20.1429 28.2248V33.2064C21.896 33.732 23.1786 35.3621 23.1786 37.2969C23.1786 39.6506 21.2737 41.5625 18.9286 41.5625C16.5835 41.5625 14.6786 39.6506 14.6786 37.2969C14.6786 35.3621 15.9612 33.732 17.7143 33.2064V28.7047ZM18.9286 39.125C19.4116 39.125 19.8749 38.9324 20.2165 38.5896C20.5581 38.2467 20.75 37.7817 20.75 37.2969C20.75 36.812 20.5581 36.347 20.2165 36.0042C19.8749 35.6614 19.4116 35.4688 18.9286 35.4688C18.4455 35.4688 17.9822 35.6614 17.6406 36.0042C17.299 36.347 17.1071 36.812 17.1071 37.2969C17.1071 37.7817 17.299 38.2467 17.6406 38.5896C17.9822 38.9324 18.4455 39.125 18.9286 39.125Z" fill="url(#paint0_linear_1346_20271)"/>
</g>
<defs>
<linearGradient id="paint0_linear_1346_20271" x1="8" y1="24.5" x2="42" y2="24.5" gradientUnits="userSpaceOnUse">
<stop stop-color="#0249FF"/>
<stop offset="1" stop-color="#5555FB"/>
</linearGradient>
</defs>
</svg>
