<svg width="30" height="30" viewBox="0 0 30 30" fill="none" xmlns="http://www.w3.org/2000/svg">
<path d="M6.28443 13.6255C7.21139 12.3313 8.4103 11.2557 9.79705 10.474C11.1838 9.69228 12.7248 9.22349 14.3119 9.1005V7.6005C14.3058 7.11143 14.439 6.63073 14.696 6.21458C14.953 5.79843 15.3232 5.46404 15.7632 5.2505C16.1841 5.04557 16.6543 4.96383 17.1197 5.0147C17.585 5.06557 18.0265 5.24698 18.3932 5.538L25.2569 10.923C25.7249 11.2952 26.0524 11.8153 26.186 12.3981C26.3195 12.9808 26.2511 13.5917 25.9919 14.1305C25.8191 14.4878 25.5679 14.8014 25.2569 15.048L18.3957 20.433C18.029 20.724 17.5873 20.9052 17.1219 20.9557C16.6564 21.0061 16.1862 20.9237 15.7657 20.718C15.327 20.5042 14.958 20.1704 14.7014 19.7553C14.4447 19.3403 14.311 18.861 14.3157 18.373V17.1955C7.65318 18.8005 6.55068 23.7592 6.50318 23.9967C6.44986 24.2689 6.30757 24.5155 6.0987 24.6979C5.88983 24.8803 5.62625 24.9881 5.34943 25.0042H5.27443C5.00835 25.0039 4.74926 24.919 4.53466 24.7617C4.32006 24.6044 4.16106 24.3829 4.08068 24.1292C3.66421 22.3234 3.64561 20.4485 4.02615 18.6348C4.40669 16.821 5.17727 15.1117 6.28443 13.6255Z" fill="url(#paint0_linear_1346_20281)"/>
<defs>
<linearGradient id="paint0_linear_1346_20281" x1="3.75391" y1="15.0021" x2="26.2526" y2="15.0021" gradientUnits="userSpaceOnUse">
<stop stop-color="#0249FF"/>
<stop offset="1" stop-color="#5555FB"/>
</linearGradient>
</defs>
</svg>
