<?xml version="1.0" standalone="no"?>
<!DOCTYPE svg PUBLIC "-//W3C//DTD SVG 20010904//EN"
 "http://www.w3.org/TR/2001/REC-SVG-20010904/DTD/svg10.dtd">
<svg version="1.0" xmlns="http://www.w3.org/2000/svg"
 width="226.000000pt" height="152.000000pt" viewBox="0 0 226.000000 152.000000"
 preserveAspectRatio="xMidYMid meet">

<g transform="translate(0.000000,152.000000) scale(0.100000,-0.100000)"
fill="#000000" stroke="none">
<path d="M1973 1411 c-41 -26 -63 -69 -63 -125 0 -36 6 -52 31 -81 59 -66 150
-66 208 1 27 30 31 43 31 89 0 49 -4 60 -33 92 -29 31 -41 37 -88 40 -42 3
-61 0 -86 -16z"/>
<path d="M60 745 l0 -395 180 0 181 0 -3 78 -3 77 -72 3 -73 3 0 84 0 85 60 0
60 0 0 75 0 75 -60 0 -60 0 0 75 0 75 65 0 65 0 0 80 0 80 -170 0 -170 0 0
-395z"/>
<path d="M470 745 l0 -395 88 0 89 0 6 113 c4 61 7 164 8 227 l1 115 33 -225
c19 -124 34 -226 34 -227 2 -8 131 -1 131 6 0 24 62 466 66 470 2 2 4 -104 4
-237 l0 -242 90 0 90 0 0 395 0 395 -134 0 -134 0 -6 -37 c-3 -21 -13 -98 -22
-171 -9 -73 -18 -131 -20 -129 -2 2 -13 68 -24 148 -11 79 -23 154 -25 167 -5
21 -9 22 -140 22 l-135 0 0 -395z"/>
<path d="M1190 746 l0 -396 105 0 105 0 0 179 c0 176 0 179 21 174 32 -9 39
-43 39 -204 l0 -149 95 0 95 0 0 156 c0 175 -10 213 -61 236 -31 14 -38 28
-15 28 8 0 28 11 43 24 27 24 28 27 28 128 0 91 -3 107 -23 141 -40 63 -64 70
-259 75 l-173 4 0 -396z m260 235 c13 -25 13 -92 0 -125 -6 -16 -17 -26 -30
-26 -18 0 -20 6 -20 85 0 78 2 85 20 85 10 0 24 -9 30 -19z"/>
<path d="M1730 745 l0 -395 100 0 100 0 0 395 0 395 -100 0 -100 0 0 -395z"/>
<path d="M67 284 c-4 -4 -7 -47 -7 -96 l0 -88 180 0 181 0 -3 93 -3 92 -171 3
c-93 1 -173 -1 -177 -4z"/>
<path d="M464 218 c4 -13 9 -41 12 -63 3 -22 7 -46 9 -52 7 -21 35 -3 35 21 0
13 6 44 14 69 13 44 13 47 -5 47 -11 0 -19 -7 -19 -17 -1 -17 -1 -17 -11 0
-15 26 -43 22 -35 -5z"/>
<path d="M832 168 c2 -57 6 -73 18 -73 9 0 17 13 21 35 l6 35 2 -32 c1 -26 5
-33 21 -33 18 0 19 6 17 57 -3 73 -10 83 -53 83 l-35 0 3 -72z"/>
<path d="M931 171 c-1 -53 2 -70 13 -74 22 -9 27 5 25 78 -2 54 -5 65 -19 65
-14 0 -17 -11 -19 -69z"/>
<path d="M1070 171 c0 -39 4 -72 8 -75 17 -10 31 11 35 54 l4 45 1 -47 c1 -27
7 -48 12 -48 6 0 13 0 18 0 4 0 10 21 13 47 l6 48 1 -47 c2 -35 6 -48 17 -48
8 0 18 0 22 0 5 0 8 76 4 120 -2 16 -38 11 -45 -6 -5 -13 -9 -14 -21 -4 -8 6
-19 9 -25 5 -5 -3 -10 1 -10 9 0 9 -9 16 -20 16 -18 0 -20 -7 -20 -69z"/>
<path d="M1447 234 c-17 -17 -6 -62 18 -78 25 -17 33 -36 15 -36 -5 0 -10 7
-10 15 0 8 -7 15 -15 15 -23 0 -19 -47 5 -55 28 -9 60 3 61 23 0 12 3 10 9 -6
8 -18 15 -22 37 -18 16 2 31 5 36 5 4 1 7 25 7 55 0 46 -3 56 -20 61 -24 8
-60 -11 -60 -30 0 -8 8 -15 17 -15 15 0 14 -2 -3 -14 -14 -11 -20 -11 -23 -3
-2 7 -15 22 -30 34 l-26 21 28 -5 c24 -5 28 -3 25 13 -3 19 -56 33 -71 18z"/>
<path d="M1627 228 c-2 -7 -2 -41 2 -75 8 -82 27 -71 34 20 5 60 3 67 -13 67
-10 0 -20 -6 -23 -12z"/>
<path d="M1259 218 c-4 -39 5 -114 14 -120 28 -17 36 18 28 125 -1 12 -41 8
-42 -5z"/>
<path d="M1770 172 c0 -59 12 -84 35 -76 8 4 11 19 8 48 -3 24 -1 46 5 50 12
7 26 -73 16 -97 -5 -14 0 -17 24 -17 33 0 38 11 44 95 2 30 -1 40 -12 40 -8 0
-17 -11 -21 -25 l-6 -25 -4 25 c-3 19 -9 24 -27 23 -12 -2 -22 2 -22 7 0 6 -9
10 -20 10 -18 0 -20 -7 -20 -58z"/>
<path d="M556 204 c-23 -23 -21 -91 3 -104 27 -14 37 -13 55 6 32 32 11 114
-29 114 -7 0 -21 -7 -29 -16z m31 -66 c-2 -13 -4 -5 -4 17 -1 22 1 32 4 23 2
-10 2 -28 0 -40z"/>
<path d="M646 213 c-9 -9 -8 -111 2 -116 4 -3 22 -2 40 0 32 5 32 6 32 59 0
30 -4 54 -10 54 -5 0 -13 0 -17 0 -5 0 -11 -21 -14 -47 l-6 -48 -1 47 c-2 45
-12 65 -26 51z"/>
<path d="M734 211 c-6 -7 -5 -107 2 -114 15 -14 34 8 34 39 0 19 5 34 10 34 6
0 10 10 10 23 0 17 -6 22 -26 22 -14 0 -28 -2 -30 -4z"/>
<path d="M985 209 c-3 -4 -5 -35 -3 -68 2 -64 13 -76 56 -60 21 8 23 14 20 70
l-3 62 -33 2 c-18 2 -35 -1 -37 -6z m32 -61 c-3 -7 -5 -2 -5 12 0 14 2 19 5
13 2 -7 2 -19 0 -25z"/>
<path d="M1328 209 c-13 -7 -18 -23 -18 -53 0 -51 18 -71 55 -62 22 6 25 11
25 54 0 65 -21 85 -62 61z m29 -71 c-2 -13 -4 -5 -4 17 -1 22 1 32 4 23 2 -10
2 -28 0 -40z"/>
<path d="M1691 206 c-18 -21 -10 -97 12 -110 29 -18 52 5 55 55 1 32 -3 47
-15 57 -22 16 -38 15 -52 -2z m39 -65 c0 -6 -4 -13 -10 -16 -5 -3 -10 1 -10 9
0 9 5 16 10 16 6 0 10 -4 10 -9z"/>
<path d="M1910 116 c0 -8 5 -18 10 -21 6 -3 10 3 10 14 0 12 -4 21 -10 21 -5
0 -10 -6 -10 -14z"/>
</g>
</svg>
